<svg xmlns="http://www.w3.org/2000/svg" viewBox="0 0 1200 480">
<defs><linearGradient id="fade" x1="0" x2="1"><stop stop-color="#22AD52" stop-opacity=".05"/><stop offset="1" stop-color="#22AD52" stop-opacity=".22"/></linearGradient></defs>
<rect width="1200" height="480" fill="#fff"/>
<g stroke="#E7EAE8"><path d="M180 80v330M460 80v330M750 80v330M1040 80v330"/></g>
<g font-family="Manrope,Arial" fill="#0D0D0D" font-size="24" font-weight="600"><text x="65" y="42">The Market</text><text x="360" y="42">Unusual behaviour</text><text x="660" y="42">Historical evidence</text><text x="940" y="42">Opportunities</text></g>
<text x="65" y="70" font-family="Manrope,Arial" fill="#7A7A7A" font-size="18">2,903 stocks analysed</text>
<path d="M45 120 C260 105 330 210 470 240 S780 245 1060 240 L1060 310 C790 300 620 310 470 300 S240 375 45 390Z" fill="url(#fade)"/>
<g fill="#B7BDBA" opacity=".8">
<circle cx="198.5" cy="337.8" r="3.9"/><circle cx="134.6" cy="326.8" r="3.3"/><circle cx="236.9" cy="149.7" r="1.6"/><circle cx="160.6" cy="321.5" r="2.1"/><circle cx="192.9" cy="205.7" r="3.6"/><circle cx="314.9" cy="228.4" r="4.0"/><circle cx="72.1" cy="339.4" r="3.7"/><circle cx="96.5" cy="310.5" r="2.9"/><circle cx="317.7" cy="176.7" r="2.8"/><circle cx="297.7" cy="292.5" r="2.3"/><circle cx="77.5" cy="373.7" r="2.7"/><circle cx="329.0" cy="158.2" r="3.5"/><circle cx="278.7" cy="368.4" r="1.5"/><circle cx="157.4" cy="134.0" r="3.4"/><circle cx="152.5" cy="379.1" r="2.4"/><circle cx="268.0" cy="354.3" r="2.1"/><circle cx="208.1" cy="378.5" r="2.8"/><circle cx="153.9" cy="192.1" r="3.5"/><circle cx="108.0" cy="283.1" r="2.9"/><circle cx="207.2" cy="155.0" r="3.1"/><circle cx="307.0" cy="206.1" r="2.3"/><circle cx="305.0" cy="276.2" r="2.2"/><circle cx="57.7" cy="323.4" r="2.4"/><circle cx="183.5" cy="193.6" r="3.1"/><circle cx="255.5" cy="203.6" r="1.7"/><circle cx="326.4" cy="365.7" r="1.6"/><circle cx="210.2" cy="305.2" r="2.5"/><circle cx="256.2" cy="379.2" r="3.0"/><circle cx="162.7" cy="172.8" r="2.1"/><circle cx="96.5" cy="149.8" r="2.0"/><circle cx="286.6" cy="265.0" r="3.5"/><circle cx="308.1" cy="338.9" r="1.6"/><circle cx="309.6" cy="145.1" r="3.4"/><circle cx="285.7" cy="297.5" r="2.5"/><circle cx="75.6" cy="143.0" r="3.1"/><circle cx="121.5" cy="263.7" r="2.2"/><circle cx="99.9" cy="199.7" r="3.3"/><circle cx="188.9" cy="226.0" r="2.7"/><circle cx="207.3" cy="259.2" r="2.6"/><circle cx="321.0" cy="323.0" r="2.1"/><circle cx="142.5" cy="171.0" r="2.4"/><circle cx="62.8" cy="321.0" r="2.9"/><circle cx="171.2" cy="361.2" r="2.3"/><circle cx="214.1" cy="371.0" r="2.9"/><circle cx="223.6" cy="219.3" r="4.0"/><circle cx="262.6" cy="201.9" r="2.4"/><circle cx="217.7" cy="260.0" r="2.8"/><circle cx="107.8" cy="275.4" r="3.3"/><circle cx="265.4" cy="241.3" r="2.6"/><circle cx="193.7" cy="264.8" r="2.7"/><circle cx="58.3" cy="191.1" r="4.0"/><circle cx="282.2" cy="246.2" r="3.4"/><circle cx="113.1" cy="192.1" r="2.8"/><circle cx="247.3" cy="127.4" r="2.7"/><circle cx="304.2" cy="285.3" r="4.0"/><circle cx="82.1" cy="365.3" r="3.6"/><circle cx="62.2" cy="264.9" r="3.4"/><circle cx="116.1" cy="295.3" r="3.6"/><circle cx="273.3" cy="235.6" r="1.6"/><circle cx="203.3" cy="170.8" r="2.8"/><circle cx="129.1" cy="213.8" r="2.9"/><circle cx="280.4" cy="383.3" r="2.5"/><circle cx="57.1" cy="322.5" r="2.3"/><circle cx="263.3" cy="344.3" r="1.6"/><circle cx="256.0" cy="196.9" r="2.3"/><circle cx="146.9" cy="265.4" r="2.1"/><circle cx="191.0" cy="196.5" r="1.8"/><circle cx="123.7" cy="303.9" r="2.3"/><circle cx="110.1" cy="218.7" r="2.0"/><circle cx="325.7" cy="332.6" r="1.9"/><circle cx="135.8" cy="237.7" r="2.8"/><circle cx="161.8" cy="261.3" r="3.4"/><circle cx="97.4" cy="271.0" r="1.9"/><circle cx="202.1" cy="205.6" r="3.5"/><circle cx="297.3" cy="378.3" r="2.5"/><circle cx="224.6" cy="165.5" r="3.3"/><circle cx="269.0" cy="235.3" r="2.3"/><circle cx="263.5" cy="322.6" r="3.5"/><circle cx="134.4" cy="185.5" r="2.1"/><circle cx="107.5" cy="121.9" r="1.8"/><circle cx="190.5" cy="236.2" r="3.7"/><circle cx="159.0" cy="166.0" r="3.8"/><circle cx="75.0" cy="211.7" r="3.4"/><circle cx="143.4" cy="380.3" r="3.4"/><circle cx="139.8" cy="353.1" r="3.8"/><circle cx="196.3" cy="158.8" r="1.8"/><circle cx="279.9" cy="359.7" r="3.1"/><circle cx="267.8" cy="334.3" r="2.1"/><circle cx="113.6" cy="354.3" r="3.6"/><circle cx="174.9" cy="193.0" r="1.7"/><circle cx="166.2" cy="365.4" r="2.0"/><circle cx="141.9" cy="129.5" r="2.9"/><circle cx="71.5" cy="302.2" r="2.7"/><circle cx="171.4" cy="190.0" r="2.3"/><circle cx="300.6" cy="374.0" r="3.4"/><circle cx="113.6" cy="176.2" r="2.4"/><circle cx="295.9" cy="374.6" r="2.1"/><circle cx="229.2" cy="222.5" r="2.6"/><circle cx="109.3" cy="314.8" r="3.5"/><circle cx="313.4" cy="250.7" r="2.6"/><circle cx="232.7" cy="155.4" r="3.7"/><circle cx="266.2" cy="181.5" r="2.5"/><circle cx="188.7" cy="350.0" r="3.2"/><circle cx="120.8" cy="376.8" r="3.8"/><circle cx="290.9" cy="253.0" r="2.7"/><circle cx="166.8" cy="384.0" r="2.7"/><circle cx="318.9" cy="169.7" r="1.6"/><circle cx="184.8" cy="173.7" r="2.1"/><circle cx="64.9" cy="153.6" r="2.6"/><circle cx="79.1" cy="200.0" r="3.0"/><circle cx="126.5" cy="204.1" r="2.4"/><circle cx="127.4" cy="272.1" r="3.4"/><circle cx="63.6" cy="264.8" r="2.8"/><circle cx="307.5" cy="310.1" r="2.2"/><circle cx="224.4" cy="363.2" r="3.9"/><circle cx="266.1" cy="149.0" r="2.4"/><circle cx="186.6" cy="208.9" r="3.4"/><circle cx="190.6" cy="384.2" r="1.5"/><circle cx="277.2" cy="150.7" r="2.8"/><circle cx="95.9" cy="223.2" r="3.0"/><circle cx="318.7" cy="131.0" r="2.5"/><circle cx="85.1" cy="320.6" r="1.9"/><circle cx="109.2" cy="338.4" r="1.6"/><circle cx="298.5" cy="192.4" r="4.0"/><circle cx="84.2" cy="146.0" r="2.7"/><circle cx="140.0" cy="293.9" r="2.3"/><circle cx="145.9" cy="124.5" r="1.7"/><circle cx="55.9" cy="244.6" r="3.7"/><circle cx="202.6" cy="207.3" r="2.6"/><circle cx="265.6" cy="355.0" r="1.7"/><circle cx="232.8" cy="200.2" r="3.8"/><circle cx="254.4" cy="279.3" r="3.2"/><circle cx="264.6" cy="139.2" r="2.3"/><circle cx="65.7" cy="161.6" r="3.8"/><circle cx="212.3" cy="174.1" r="2.2"/><circle cx="170.3" cy="143.0" r="3.5"/><circle cx="159.8" cy="135.2" r="2.8"/><circle cx="168.8" cy="326.0" r="2.2"/><circle cx="120.6" cy="255.4" r="2.5"/><circle cx="90.6" cy="318.6" r="3.7"/><circle cx="283.5" cy="297.6" r="2.7"/><circle cx="272.4" cy="177.0" r="1.7"/><circle cx="111.4" cy="263.3" r="2.0"/><circle cx="174.8" cy="339.4" r="3.0"/><circle cx="109.7" cy="152.9" r="1.5"/><circle cx="69.1" cy="190.6" r="3.3"/><circle cx="283.1" cy="224.3" r="1.6"/><circle cx="208.9" cy="376.1" r="1.5"/><circle cx="227.9" cy="389.5" r="2.3"/><circle cx="217.8" cy="339.0" r="3.2"/><circle cx="102.5" cy="332.3" r="3.0"/><circle cx="236.5" cy="281.7" r="3.6"/><circle cx="212.2" cy="369.2" r="1.8"/><circle cx="61.6" cy="157.1" r="2.8"/><circle cx="252.6" cy="367.8" r="1.5"/><circle cx="57.1" cy="223.3" r="3.1"/><circle cx="164.7" cy="195.6" r="2.0"/><circle cx="251.0" cy="283.8" r="3.9"/><circle cx="145.0" cy="248.5" r="3.9"/><circle cx="247.4" cy="190.6" r="3.3"/><circle cx="178.0" cy="144.2" r="1.8"/><circle cx="192.0" cy="204.1" r="2.1"/><circle cx="253.9" cy="189.6" r="2.6"/><circle cx="194.8" cy="122.1" r="3.5"/><circle cx="128.6" cy="163.7" r="2.8"/><circle cx="113.6" cy="128.7" r="1.8"/><circle cx="66.1" cy="215.7" r="2.3"/><circle cx="112.7" cy="167.2" r="3.6"/><circle cx="213.3" cy="283.8" r="1.5"/><circle cx="308.9" cy="128.7" r="3.4"/><circle cx="234.8" cy="231.0" r="2.3"/><circle cx="203.8" cy="276.9" r="3.6"/><circle cx="70.6" cy="144.1" r="3.1"/><circle cx="133.1" cy="276.6" r="2.5"/><circle cx="64.4" cy="342.4" r="2.0"/><circle cx="146.7" cy="320.7" r="3.8"/><circle cx="290.5" cy="371.0" r="2.3"/><circle cx="119.2" cy="243.9" r="3.6"/><circle cx="233.5" cy="288.8" r="3.3"/><circle cx="114.4" cy="273.1" r="2.6"/><circle cx="297.2" cy="203.6" r="2.9"/><circle cx="228.9" cy="310.6" r="3.5"/><circle cx="260.6" cy="156.0" r="3.9"/><circle cx="65.3" cy="317.5" r="2.3"/><circle cx="82.7" cy="217.9" r="1.8"/><circle cx="113.1" cy="381.1" r="3.5"/><circle cx="156.8" cy="253.4" r="3.0"/><circle cx="142.4" cy="156.4" r="2.6"/><circle cx="287.5" cy="379.3" r="3.0"/><circle cx="275.4" cy="233.0" r="3.5"/><circle cx="277.7" cy="363.7" r="2.0"/><circle cx="199.3" cy="139.9" r="3.0"/><circle cx="185.0" cy="279.6" r="2.8"/><circle cx="149.3" cy="158.0" r="2.3"/><circle cx="269.6" cy="194.6" r="3.9"/><circle cx="285.7" cy="191.2" r="2.6"/><circle cx="274.6" cy="122.5" r="3.4"/><circle cx="166.8" cy="302.2" r="1.5"/><circle cx="233.6" cy="135.4" r="2.2"/><circle cx="223.8" cy="291.2" r="2.4"/><circle cx="125.9" cy="218.5" r="2.3"/><circle cx="117.6" cy="186.8" r="2.7"/><circle cx="261.8" cy="342.0" r="2.5"/><circle cx="314.8" cy="213.7" r="3.6"/><circle cx="278.9" cy="323.3" r="3.8"/><circle cx="221.1" cy="357.9" r="2.2"/><circle cx="194.2" cy="273.7" r="2.8"/><circle cx="71.5" cy="189.5" r="3.1"/><circle cx="156.0" cy="309.5" r="3.3"/><circle cx="207.1" cy="155.8" r="2.6"/><circle cx="308.6" cy="205.0" r="1.7"/><circle cx="266.4" cy="219.2" r="2.0"/><circle cx="196.1" cy="367.0" r="2.9"/><circle cx="113.2" cy="122.3" r="2.6"/><circle cx="127.4" cy="380.1" r="3.7"/><circle cx="323.8" cy="366.6" r="2.2"/><circle cx="229.7" cy="269.0" r="2.8"/><circle cx="203.8" cy="178.7" r="1.9"/><circle cx="70.1" cy="306.3" r="1.9"/><circle cx="292.7" cy="295.1" r="2.3"/><circle cx="301.1" cy="144.9" r="2.0"/><circle cx="273.5" cy="220.0" r="3.8"/><circle cx="190.4" cy="120.0" r="3.8"/><circle cx="326.7" cy="242.1" r="3.3"/><circle cx="242.8" cy="147.4" r="3.4"/><circle cx="190.3" cy="307.4" r="1.5"/><circle cx="167.4" cy="173.2" r="3.8"/><circle cx="63.1" cy="126.8" r="2.3"/><circle cx="279.7" cy="172.1" r="3.2"/><circle cx="271.6" cy="280.8" r="2.5"/></g><g fill="#15943D"><circle cx="493.7" cy="286.8" r="7.3"/><circle cx="355.9" cy="284.6" r="4.3"/><circle cx="335.4" cy="131.6" r="3.7"/><circle cx="433.5" cy="228.5" r="7.5"/><circle cx="322.7" cy="208.8" r="5.8"/><circle cx="544.9" cy="259.7" r="7.7"/><circle cx="386.3" cy="274.6" r="7.7"/><circle cx="362.8" cy="318.0" r="4.4"/><circle cx="400.7" cy="297.8" r="4.0"/><circle cx="404.4" cy="237.6" r="5.7"/><circle cx="357.9" cy="260.5" r="5.6"/><circle cx="393.0" cy="219.2" r="7.4"/><circle cx="553.6" cy="200.8" r="5.0"/><circle cx="463.1" cy="267.1" r="3.8"/><circle cx="310.1" cy="248.2" r="4.7"/><circle cx="342.4" cy="326.0" r="5.8"/><circle cx="549.9" cy="293.8" r="4.0"/><circle cx="477.5" cy="240.6" r="7.3"/><circle cx="332.0" cy="207.5" r="7.8"/><circle cx="546.1" cy="250.2" r="4.2"/><circle cx="549.2" cy="280.8" r="7.7"/><circle cx="389.6" cy="287.9" r="7.8"/><circle cx="450.3" cy="170.5" r="6.7"/><circle cx="384.2" cy="164.9" r="5.1"/><circle cx="391.1" cy="258.5" r="6.5"/><circle cx="412.2" cy="303.4" r="3.3"/><circle cx="511.4" cy="192.4" r="5.9"/><circle cx="388.8" cy="149.5" r="7.0"/><circle cx="482.0" cy="189.3" r="4.8"/><circle cx="372.5" cy="219.4" r="3.2"/><circle cx="413.0" cy="221.0" r="7.7"/><circle cx="537.7" cy="252.9" r="4.6"/><circle cx="334.7" cy="323.3" r="6.8"/><circle cx="411.7" cy="292.0" r="6.9"/><circle cx="364.5" cy="236.4" r="3.1"/><circle cx="301.9" cy="289.8" r="7.4"/><circle cx="750" cy="245" r="13"/><circle cx="730" cy="205" r="6"/><circle cx="770" cy="285" r="5"/><circle cx="1040" cy="220" r="13"/><circle cx="1040" cy="255" r="13"/><circle cx="1040" cy="290" r="13"/></g></svg>